<?xml version="1.0" encoding="UTF-8" standalone="no"?>
<svg
   xmlns:dc="http://purl.org/dc/elements/1.1/"
   xmlns:cc="http://creativecommons.org/ns#"
   xmlns:rdf="http://www.w3.org/1999/02/22-rdf-syntax-ns#"
   xmlns:svg="http://www.w3.org/2000/svg"
   xmlns="http://www.w3.org/2000/svg"
   id="svg8"
   version="1.1"
   viewBox="0 0 128.56195 153.28363"
   height="153.28363mm"
   width="128.56195mm">
  <defs
     id="defs2">
    <clipPath
       clipPathUnits="userSpaceOnUse"
       id="clipPath4501">
      <path
         d="M 0,595.276 H 841.89 V 0 H 0 Z"
         id="path4499" />
    </clipPath>
    <filter
       id="filter5062"
       style="color-interpolation-filters:sRGB;">
      <feFlood
         id="feFlood5052"
         result="flood"
         flood-color="rgb(0,0,0)"
         flood-opacity="0.498039" />
      <feComposite
         id="feComposite5054"
         result="composite1"
         operator="in"
         in2="SourceGraphic"
         in="flood" />
      <feGaussianBlur
         id="feGaussianBlur5056"
         result="blur"
         stdDeviation="5"
         in="composite1" />
      <feOffset
         id="feOffset5058"
         result="offset"
         dy="-10"
         dx="0" />
      <feComposite
         id="feComposite5060"
         result="composite2"
         operator="over"
         in2="offset"
         in="SourceGraphic" />
    </filter>
  </defs>
  <metadata
     id="metadata5">
    <rdf:RDF>
      <cc:Work
         rdf:about="">
        <dc:format>image/svg+xml</dc:format>
        <dc:type
           rdf:resource="http://purl.org/dc/dcmitype/StillImage" />
        <dc:title></dc:title>
      </cc:Work>
    </rdf:RDF>
  </metadata>
  <g
     transform="translate(-32.858903,-53.292707)"
     id="layer1">
    <g
       style="filter:url(#filter5062)"
       id="g4493"
       transform="matrix(0.35277777,0,0,-0.35277777,-51.45442,238.47994)">
      <g
         id="g4495">
        <g
           id="g4497"
           clip-path="url(#clipPath4501)">
          <g
             id="g4503"
             transform="translate(301.9517,111.6994)">
            <path
               d="m 0,0 c 0,-1.429 -0.121,-2.842 -0.358,-4.197 -0.195,-1.108 -0.67,-2.065 -1.477,-2.952 -0.52,-0.594 -1.293,-1.11 -2.299,-1.533 -1.042,-0.437 -2.375,-0.659 -3.964,-0.659 -1.518,0 -2.848,0.254 -3.952,0.755 -1.063,0.481 -1.838,1.033 -2.305,1.646 -0.497,0.648 -0.873,1.504 -1.117,2.544 -0.274,1.164 -0.413,2.668 -0.413,4.473 V 32.293 H -29.594 V -0.311 c 0,-3.391 0.354,-6.301 1.053,-8.648 0.733,-2.463 1.944,-4.612 3.626,-6.413 1.804,-1.864 4.116,-3.333 6.871,-4.365 2.699,-1.013 5.94,-1.527 9.635,-1.527 4.044,0 7.572,0.66 10.487,1.96 2.937,1.313 5.285,3.014 6.951,5.027 1.501,1.741 2.561,3.894 3.151,6.401 0.551,2.344 0.83,4.967 0.83,7.798 V 32.293 H 0 Z"
               style="fill:#00adb5;fill-opacity:1;fill-rule:nonzero;stroke:none"
               id="path4505" />
          </g>
          <g
             id="g4507"
             transform="translate(356.3774,105.3449)">
            <path
               d="m 0,0 c -1.598,-0.941 -3.369,-1.683 -5.264,-2.203 v 0 c -1.887,-0.52 -4.087,-0.783 -6.538,-0.783 -3.959,0 -6.793,1.275 -8.663,3.899 -1.996,2.798 -3.008,6.851 -3.008,12.044 0,2.479 0.349,4.853 1.036,7.056 0.648,2.08 1.67,3.734 3.126,5.057 0.925,0.841 2.044,1.485 3.326,1.912 1.341,0.448 2.749,0.674 4.183,0.674 1.967,0 3.902,-0.284 5.75,-0.845 1.864,-0.566 3.572,-1.33 5.075,-2.268 l 2.833,-1.769 0.843,12.655 -0.979,0.64 c -1.545,1.009 -3.632,1.844 -6.382,2.554 -2.666,0.687 -5.512,1.034 -8.461,1.034 -3.911,0 -7.469,-0.76 -10.576,-2.257 -3.09,-1.488 -5.73,-3.515 -7.847,-6.027 -2.098,-2.489 -3.711,-5.417 -4.797,-8.701 -1.072,-3.246 -1.616,-6.724 -1.616,-10.337 0,-3.819 0.543,-7.413 1.615,-10.682 1.087,-3.318 2.706,-6.24 4.813,-8.683 2.124,-2.464 4.747,-4.414 7.796,-5.797 3.045,-1.382 6.537,-2.082 10.38,-2.082 3.202,0 6.242,0.36 9.038,1.071 2.811,0.717 5.207,1.651 7.122,2.778 l 1.106,0.651 -1.223,11.992 z"
               style="fill:#00adb5;fill-opacity:1;fill-rule:nonzero;stroke:none"
               id="path4509" />
          </g>
          <g
             id="g4511"
             transform="translate(377.8003,102.9797)">
            <path
               d="M 0,0 V 41.013 H -13.709 V -11.689 H 17.919 L 20.636,0 Z"
               style="fill:#00adb5;fill-opacity:1;fill-rule:nonzero;stroke:none"
               id="path4513" />
          </g>
          <g
             id="g4515"
             transform="translate(421.4888,143.4318)">
            <path
               d="m 0,0 -1.195,-3.944 h -9.163 v -6.853 h 8.406 l -0.917,-3.943 h -7.489 v -10.239 h -4.98 V 0 Z"
               style="fill:#111f4d;fill-opacity:1;fill-rule:nonzero;stroke:none"
               id="path4517" />
          </g>
          <g
             id="g4519"
             transform="translate(434.2373,139.8859)">
            <path
               d="m 0,0 c -0.982,0 -1.846,-0.219 -2.59,-0.657 -0.743,-0.438 -1.368,-1.056 -1.872,-1.853 -0.505,-0.797 -0.884,-1.739 -1.136,-2.828 -0.253,-1.09 -0.378,-2.285 -0.378,-3.586 0,-1.302 0.125,-2.497 0.378,-3.586 0.252,-1.089 0.631,-2.025 1.136,-2.808 0.504,-0.784 1.129,-1.395 1.872,-1.832 0.744,-0.439 1.608,-0.659 2.59,-0.659 0.982,0 1.846,0.22 2.59,0.659 0.743,0.437 1.367,1.048 1.872,1.832 0.505,0.783 0.883,1.719 1.136,2.808 0.252,1.089 0.379,2.284 0.379,3.586 0,1.301 -0.127,2.496 -0.379,3.586 C 5.345,-4.249 4.967,-3.307 4.462,-2.51 3.957,-1.713 3.333,-1.095 2.59,-0.657 1.846,-0.219 0.982,0 0,0 m 0,4.064 c 1.833,0 3.459,-0.345 4.881,-1.036 1.42,-0.691 2.609,-1.62 3.565,-2.789 0.956,-1.169 1.68,-2.543 2.171,-4.123 0.491,-1.581 0.737,-3.261 0.737,-5.04 0,-1.779 -0.246,-3.453 -0.737,-5.019 -0.491,-1.568 -1.215,-2.943 -2.171,-4.124 C 7.49,-19.249 6.301,-20.179 4.881,-20.855 3.459,-21.533 1.833,-21.872 0,-21.872 c -1.832,0 -3.46,0.339 -4.88,1.017 -1.422,0.676 -2.61,1.606 -3.566,2.788 -0.956,1.181 -1.68,2.556 -2.171,4.124 -0.492,1.566 -0.737,3.24 -0.737,5.019 0,1.779 0.245,3.459 0.737,5.04 0.491,1.58 1.215,2.954 2.171,4.123 0.956,1.169 2.144,2.098 3.566,2.789 1.42,0.691 3.048,1.036 4.88,1.036"
               style="fill:#111f4d;fill-opacity:1;fill-rule:nonzero;stroke:none"
               id="path4521" />
          </g>
          <g
             id="g4523"
             transform="translate(459.4951,139.8859)">
            <path
               d="m 0,0 c -0.982,0 -1.846,-0.219 -2.589,-0.657 -0.744,-0.438 -1.368,-1.056 -1.873,-1.853 -0.505,-0.797 -0.883,-1.739 -1.135,-2.828 -0.253,-1.09 -0.379,-2.285 -0.379,-3.586 0,-1.302 0.126,-2.497 0.379,-3.586 0.252,-1.089 0.63,-2.025 1.135,-2.808 0.505,-0.784 1.129,-1.395 1.873,-1.832 0.743,-0.439 1.607,-0.659 2.589,-0.659 0.982,0 1.846,0.22 2.59,0.659 0.743,0.437 1.368,1.048 1.873,1.832 0.504,0.783 0.883,1.719 1.135,2.808 0.252,1.089 0.379,2.284 0.379,3.586 0,1.301 -0.127,2.496 -0.379,3.586 C 5.346,-4.249 4.967,-3.307 4.463,-2.51 3.958,-1.713 3.333,-1.095 2.59,-0.657 1.846,-0.219 0.982,0 0,0 m 0,4.064 c 1.833,0 3.46,-0.345 4.881,-1.036 1.421,-0.691 2.609,-1.62 3.565,-2.789 0.956,-1.169 1.68,-2.543 2.172,-4.123 0.491,-1.581 0.736,-3.261 0.736,-5.04 0,-1.779 -0.245,-3.453 -0.736,-5.019 -0.492,-1.568 -1.216,-2.943 -2.172,-4.124 C 7.49,-19.249 6.302,-20.179 4.881,-20.855 3.46,-21.533 1.833,-21.872 0,-21.872 c -1.832,0 -3.459,0.339 -4.88,1.017 -1.421,0.676 -2.609,1.606 -3.565,2.788 -0.956,1.181 -1.681,2.556 -2.172,4.124 -0.491,1.566 -0.737,3.24 -0.737,5.019 0,1.779 0.246,3.459 0.737,5.04 0.491,1.58 1.216,2.954 2.172,4.123 0.956,1.169 2.144,2.098 3.565,2.789 1.421,0.691 3.048,1.036 4.88,1.036"
               style="fill:#111f4d;fill-opacity:1;fill-rule:nonzero;stroke:none"
               id="path4525" />
          </g>
          <g
             id="g4527"
             transform="translate(492.8408,143.4318)">
            <path
               d="m 0,0 -0.518,-3.944 h -7.131 v -21.035 h -4.98 v 21.035 h -7.49 L -19.602,0 Z"
               style="fill:#111f4d;fill-opacity:1;fill-rule:nonzero;stroke:none"
               id="path4529" />
          </g>
          <g
             id="g4531"
             transform="translate(501.0078,122.3967)">
            <path
               d="M 0,0 H 3.307 C 4.979,0 6.182,0.299 6.912,0.896 7.643,1.494 8.008,2.391 8.008,3.586 8.008,4.78 7.636,5.677 6.893,6.274 6.148,6.872 4.887,7.171 3.107,7.171 H 0 Z m 0,11.195 h 2.071 c 1.594,0 2.709,0.265 3.347,0.797 0.638,0.53 0.956,1.261 0.956,2.191 0,0.929 -0.318,1.646 -0.956,2.151 -0.638,0.505 -1.753,0.757 -3.347,0.757 H 0 Z m 2.391,9.84 c 1.699,0 3.127,-0.139 4.282,-0.418 1.155,-0.279 2.092,-0.678 2.808,-1.195 0.718,-0.518 1.229,-1.169 1.535,-1.952 0.304,-0.784 0.458,-1.667 0.458,-2.65 0,-1.301 -0.359,-2.397 -1.076,-3.287 C 9.681,10.644 8.605,10.065 7.171,9.801 V 9.642 C 9.163,9.535 10.697,8.891 11.772,7.709 12.849,6.526 13.386,5.086 13.386,3.387 13.386,2.323 13.213,1.341 12.868,0.438 12.522,-0.465 11.952,-1.242 11.155,-1.893 10.358,-2.544 9.315,-3.048 8.027,-3.406 6.739,-3.765 5.152,-3.944 3.267,-3.944 H -4.98 v 24.979 z"
               style="fill:#111f4d;fill-opacity:1;fill-rule:nonzero;stroke:none"
               id="path4533" />
          </g>
          <g
             id="g4535"
             transform="translate(524.1943,128.8508)">
            <path
               d="M 0,0 H 5.219 L 2.59,7.012 Z m 4.741,14.939 9.84,-25.337 H 9.123 l -2.47,6.613 h -8.007 l -2.471,-6.613 h -4.462 l 9.601,24.502 z"
               style="fill:#111f4d;fill-opacity:1;fill-rule:nonzero;stroke:none"
               id="path4537" />
          </g>
          <g
             id="g4539"
             transform="translate(546.7832,143.4318)">
            <path
               d="M 0,0 V -21.035 H 10.318 L 9.402,-24.979 H -4.98 V 0 Z"
               style="fill:#111f4d;fill-opacity:1;fill-rule:nonzero;stroke:none"
               id="path4541" />
          </g>
          <g
             id="g4543"
             transform="translate(565.5078,143.4318)">
            <path
               d="M 0,0 V -21.035 H 10.318 L 9.402,-24.979 H -4.98 V 0 Z"
               style="fill:#111f4d;fill-opacity:1;fill-rule:nonzero;stroke:none"
               id="path4545" />
          </g>
          <g
             id="g4547"
             transform="translate(412.1265,101.6506)">
            <path
               d="m 0,0 h 5.219 l -2.63,7.012 z m 4.741,14.939 9.84,-25.337 H 9.123 l -2.47,6.613 h -8.008 l -2.47,-6.613 h -4.462 l 9.601,24.502 z"
               style="fill:#111f4d;fill-opacity:1;fill-rule:nonzero;stroke:none"
               id="path4549" />
          </g>
          <g
             id="g4551"
             transform="translate(447.583,110.8938)">
            <path
               d="m 0,0 c -0.85,0.53 -1.799,0.956 -2.848,1.274 -1.049,0.319 -2.131,0.479 -3.247,0.479 -0.85,0 -1.674,-0.134 -2.469,-0.399 -0.797,-0.266 -1.489,-0.664 -2.073,-1.195 -0.876,-0.797 -1.508,-1.812 -1.892,-3.048 -0.385,-1.235 -0.577,-2.544 -0.577,-3.924 0,-2.895 0.577,-5.153 1.732,-6.773 1.155,-1.62 2.915,-2.431 5.279,-2.431 1.355,0 2.563,0.147 3.625,0.439 1.063,0.292 2.045,0.704 2.949,1.235 l 0.398,-3.904 c -0.903,-0.532 -2.031,-0.97 -3.386,-1.315 -1.355,-0.345 -2.816,-0.518 -4.383,-0.518 -1.833,0 -3.465,0.326 -4.9,0.976 -1.435,0.651 -2.649,1.554 -3.646,2.709 -0.996,1.156 -1.752,2.523 -2.27,4.104 -0.519,1.58 -0.777,3.3 -0.777,5.159 0,1.753 0.258,3.412 0.777,4.981 0.518,1.566 1.274,2.94 2.27,4.123 0.997,1.181 2.225,2.125 3.686,2.829 1.46,0.703 3.12,1.055 4.98,1.055 1.434,0 2.794,-0.167 4.084,-0.498 C -1.4,5.025 -0.412,4.634 0.279,4.183 Z"
               style="fill:#111f4d;fill-opacity:1;fill-rule:nonzero;stroke:none"
               id="path4553" />
          </g>
          <g
             id="g4555"
             transform="translate(459.6553,101.6506)">
            <path
               d="M 0,0 H 5.219 L 2.59,7.012 Z m 4.741,14.939 9.84,-25.337 H 9.123 l -2.47,6.613 h -8.007 l -2.471,-6.613 h -4.462 l 9.601,24.502 z"
               style="fill:#111f4d;fill-opacity:1;fill-rule:nonzero;stroke:none"
               id="path4557" />
          </g>
          <g
             id="g4559"
             transform="translate(483.3994,95.1965)">
            <path
               d="m 0,0 h 2.59 c 1.168,0 2.23,0.14 3.186,0.418 0.956,0.279 1.846,0.803 2.67,1.574 0.717,0.691 1.228,1.579 1.533,2.669 0.306,1.089 0.459,2.431 0.459,4.024 0,1.116 -0.173,2.231 -0.518,3.346 C 9.574,13.147 9.083,14.09 8.446,14.86 7.782,15.657 6.938,16.228 5.916,16.573 4.894,16.918 3.745,17.091 2.47,17.091 H 0 Z m 1.833,21.035 c 1.115,0 2.105,-0.033 2.968,-0.099 0.862,-0.067 1.633,-0.173 2.31,-0.319 0.678,-0.146 1.282,-0.325 1.813,-0.538 0.531,-0.213 1.036,-0.452 1.514,-0.717 1.753,-1.062 3.087,-2.504 4.004,-4.323 0.916,-1.819 1.374,-3.977 1.374,-6.474 0,-2.497 -0.464,-4.668 -1.394,-6.513 C 13.492,0.205 12.138,-1.222 10.358,-2.231 8.393,-3.373 5.883,-3.944 2.828,-3.944 H -4.98 v 24.979 z"
               style="fill:#111f4d;fill-opacity:1;fill-rule:nonzero;stroke:none"
               id="path4561" />
          </g>
          <g
             id="g4563"
             transform="translate(519.6533,116.2316)">
            <path
               d="m 0,0 -1.195,-3.944 h -9.163 v -6.853 h 8.406 l -0.916,-3.943 h -7.49 v -6.295 H 0.478 l -0.916,-3.944 H -15.339 V 0 Z"
               style="fill:#111f4d;fill-opacity:1;fill-rule:nonzero;stroke:none"
               id="path4565" />
          </g>
          <g
             id="g4567"
             transform="translate(530.291,116.2316)">
            <path
               d="M 0,0 7.052,-13.744 14.104,0 h 4.302 l 1.196,-24.979 H 14.741 L 14.104,-8.326 7.569,-21.234 H 5.856 L -1.115,-8.048 -1.753,-24.979 H -5.657 L -4.661,0 Z"
               style="fill:#111f4d;fill-opacity:1;fill-rule:nonzero;stroke:none"
               id="path4569" />
          </g>
          <g
             id="g4571"
             transform="translate(559.1738,116.2316)">
            <path
               d="M 0,0 5.498,-10.717 10.837,0 h 4.462 L 7.45,-15.219 v -9.76 H 2.471 v 9.959 L -5.497,0 Z"
               style="fill:#111f4d;fill-opacity:1;fill-rule:nonzero;stroke:none"
               id="path4573" />
          </g>
          <g
             id="g4575"
             transform="translate(263.1118,351.5656)">
            <path
               d="m 0,0 c 4.946,-4.732 10.811,-8.098 17.589,-10.098 6.779,-2 14.546,-2.272 23.303,-0.819 9.54,1.582 17.354,4.875 23.442,9.876 6.086,4.998 10.533,10.77 13.345,17.31 2.453,5.438 3.74,11.856 3.857,19.252 0.114,7.396 -0.555,15.485 -2.011,24.267 l -14.53,87.261 C 57.638,142.612 50.622,137.671 43.983,132.281 L 56.742,56.27 c 0.84,-5.067 1.331,-10.061 1.478,-14.982 0.143,-4.922 -0.783,-9.463 -2.78,-13.606 -1.383,-3.008 -3.562,-5.667 -6.532,-7.985 -2.974,-2.314 -6.813,-3.863 -11.518,-4.644 -4.576,-0.759 -8.764,-0.41 -12.561,1.041 -3.802,1.451 -6.789,3.469 -8.962,6.062 -2.178,2.588 -4.014,5.974 -5.513,10.15 -1.498,4.175 -2.779,9.469 -3.845,15.893 L 0.111,80.697 C -7.24,67.863 -13.089,54.059 -17.197,39.523 -15.545,30.545 -13.472,23.007 -10.966,16.928 -8.155,10.102 -4.501,4.464 0,0"
               style="fill:#111f4d;fill-opacity:1;fill-rule:nonzero;stroke:none"
               id="path4577" />
          </g>
          <g
             id="g4579"
             transform="translate(456.9736,296.1194)">
            <path
               d="m 0,0 c -0.957,-4.855 -2.296,-9.51 -4.011,-13.963 -1.719,-4.452 -4.549,-8.146 -8.484,-11.064 -2.778,-2.145 -6.358,-3.666 -10.737,-4.572 -4.381,-0.901 -9.486,-0.78 -15.312,0.368 -5.666,1.115 -10.452,3.068 -14.357,5.854 -3.91,2.786 -6.645,5.76 -8.203,8.929 -1.565,3.165 -2.424,6.91 -2.583,11.227 -0.158,4.317 0.368,9.549 1.58,15.704 l 18.599,94.445 -30.346,5.977 -18.839,-95.661 C -94.669,7.21 -95.318,-1.404 -94.631,-8.6 c 0.683,-7.199 2.813,-13.669 6.389,-19.421 3.995,-6.166 9.594,-11.471 16.79,-15.916 7.196,-4.444 16.216,-7.732 27.06,-9.868 11.814,-2.326 22.256,-2.449 31.328,-0.367 9.066,2.078 16.504,5.491 22.316,10.232 4.968,3.895 8.942,9.123 11.916,15.685 2.971,6.562 5.289,14.05 6.946,22.466 l 18.695,94.931 -28.163,5.546 z"
               style="fill:#111f4d;fill-opacity:1;fill-rule:nonzero;stroke:none"
               id="path4581" />
          </g>
          <g
             id="g4583"
             transform="translate(497.2842,433.5593)">
            <path
               d="m 0,0 c 0.92,-4.112 2.572,-7.58 4.952,-10.403 2.763,-3.408 6.615,-6.249 11.56,-8.52 4.945,-2.274 10.94,-3.449 17.982,-3.525 6.465,-0.071 12.022,0.737 16.672,2.424 4.651,1.686 8.49,4.057 11.513,7.111 2.733,2.868 4.724,6.318 5.974,10.359 1.252,4.039 1.908,9.049 1.973,15.031 l 0.06,8.194 C 65.5,27.299 59.865,33.555 53.836,39.408 L 52.543,13.398 C 52.504,9.729 52.181,6.67 51.575,4.216 50.97,1.763 50.031,-0.279 48.757,-1.905 47.487,-3.533 45.566,-4.91 42.995,-6.04 c -2.568,-1.129 -5.541,-1.676 -8.919,-1.64 -3.473,0.038 -6.411,0.577 -8.812,1.616 -2.4,1.041 -4.268,2.338 -5.603,3.898 -1.906,2.14 -3.085,4.593 -3.539,7.348 -0.451,2.755 -0.663,5.579 -0.632,8.473 l 0.721,53.948 C 10.783,70.676 5.183,73.479 -0.571,75.998 L -1.299,13.693 C -1.354,8.676 -0.919,4.112 0,0"
               style="fill:#111f4d;fill-opacity:1;fill-rule:nonzero;stroke:none"
               id="path4585" />
          </g>
          <g
             id="g4587"
             transform="translate(393.0664,213.1584)">
            <path
               d="m 0,0 c -1.873,9.564 -6.276,18.696 -13.215,27.388 -6.942,8.689 -15.615,17.129 -26.026,25.309 l -114.244,89.773 c -0.382,-4.842 -0.583,-9.734 -0.583,-14.674 0,-15.786 1.991,-31.107 5.731,-45.727 L -66.92,18.092 c 6.006,-4.72 11.468,-9.825 16.389,-15.308 4.918,-5.488 8.014,-11.97 9.268,-19.429 1.001,-5.325 0.582,-11.314 -1.243,-17.972 -0.53,-1.925 -1.24,-3.876 -2.089,-5.847 12.012,-5.327 24.698,-9.412 37.899,-12.077 2.185,4.932 3.898,9.824 5.116,14.674 C 1.92,-23.941 2.443,-11.317 0,0"
               style="fill:#111f4d;fill-opacity:1;fill-rule:nonzero;stroke:none"
               id="path4589" />
          </g>
          <g
             id="g4591"
             transform="translate(521.8359,288.0305)">
            <path
               d="m 0,0 50.508,-54.52 c 6.233,8.652 11.742,17.861 16.419,27.547 L 22.569,20.908 Z"
               style="fill:#111f4d;fill-opacity:1;fill-rule:nonzero;stroke:none"
               id="path4593" />
          </g>
          <g
             id="g4595"
             transform="translate(472.0254,241.885)">
            <path
               d="m 0,0 -24.32,-22.53 45.086,-48.667 c 10.676,4.382 20.849,9.735 30.409,15.957 z"
               style="fill:#111f4d;fill-opacity:1;fill-rule:nonzero;stroke:none"
               id="path4597" />
          </g>
          <g
             id="g4599"
             transform="translate(343.4771,469.2566)">
            <path
               d="m 0,0 c 2.32,-4.817 5.923,-9.055 10.812,-12.706 4.889,-3.65 10.662,-6.927 17.323,-9.827 l 75.134,-32.708 9.703,22.29 -74.942,32.624 c -3.843,1.673 -7.449,3.626 -10.822,5.854 -3.371,2.231 -5.913,5.242 -7.612,9.028 -1.269,2.688 -1.878,5.925 -1.831,9.712 0.049,3.788 1.077,7.988 3.084,12.6 1.953,4.485 4.438,8.089 7.451,10.813 0.459,0.416 0.917,0.8 1.373,1.169 C 18.706,45.77 8.157,41.694 -1.878,36.735 -3.603,30.951 -4.458,25.475 -4.41,20.319 -4.338,12.442 -2.865,5.668 0,0"
               style="fill:#111f4d;fill-opacity:1;fill-rule:nonzero;stroke:none"
               id="path4601" />
          </g>
          <g
             id="g4603"
             transform="translate(390.769,522.1252)">
            <path
               d="m 0,0 c 3.523,-0.678 7.632,-2.035 12.346,-4.086 l 74.749,-32.54 10.456,24.018 -25.428,11.069 C 59.272,1.304 45.921,2.815 32.215,2.815 21.225,2.815 10.461,1.847 0,0"
               style="fill:#111f4d;fill-opacity:1;fill-rule:nonzero;stroke:none"
               id="path4605" />
          </g>
          <g
             id="g4607"
             transform="translate(594.998,310.1853)">
            <path
               d="m 0,0 c -3.902,3.354 -6.534,6.792 -7.891,10.326 -1.364,3.531 -1.918,7.611 -1.669,12.236 0.25,4.623 1.318,10.157 3.208,16.61 L 5.449,79.453 C 0.811,96.398 -6.185,112.369 -15.172,126.986 L -38.54,47.218 c -3.082,-10.519 -4.609,-19.652 -4.573,-27.399 0.032,-7.752 1.678,-14.864 4.937,-21.351 3.667,-6.969 9.131,-13.176 16.381,-18.617 6.144,-4.61 13.782,-8.453 22.883,-11.548 3.076,8.523 5.539,17.338 7.34,26.393 C 5.227,-3.845 2.417,-2.078 0,0"
               style="fill:#111f4d;fill-opacity:1;fill-rule:nonzero;stroke:none"
               id="path4609" />
          </g>
          <g
             id="g4611"
             transform="translate(466.1523,178.2023)">
            <path
               d="m 0,0 c -1.582,3.906 -3.78,7.056 -6.591,9.451 -3.284,2.908 -7.55,5.08 -12.799,6.51 -5.252,1.433 -11.358,1.609 -18.317,0.53 -6.39,-0.99 -11.739,-2.697 -16.05,-5.123 -4.311,-2.427 -7.71,-5.394 -10.191,-8.902 -2.227,-3.278 -3.625,-7.008 -4.196,-11.199 -0.427,-3.121 -0.438,-6.723 -0.037,-10.802 6.06,-0.823 12.214,-1.351 18.447,-1.569 -0.474,3.303 -0.635,6.147 -0.453,8.492 0.195,2.519 0.786,4.687 1.776,6.5 0.986,1.815 2.656,3.488 5.007,5.023 2.348,1.535 5.191,2.563 8.53,3.08 3.432,0.532 6.418,0.482 8.957,-0.149 2.538,-0.634 4.594,-1.608 6.167,-2.927 2.23,-1.8 3.796,-4.025 4.694,-6.669 0.898,-2.643 1.57,-5.395 2.013,-8.256 l 0.409,-2.687 c 5.572,0.93 11.059,2.107 16.448,3.526 l -0.289,1.876 C 2.757,-8.337 1.58,-3.905 0,0"
               style="fill:#111f4d;fill-opacity:1;fill-rule:nonzero;stroke:none"
               id="path4613" />
          </g>
          <g
             id="g4615"
             transform="translate(296.3179,238.8488)">
            <path
               d="M 0,0 -11.875,10.997 -24.557,-2.696 c 3.129,-4.506 6.45,-8.867 9.958,-13.068 z"
               style="fill:#111f4d;fill-opacity:1;fill-rule:nonzero;stroke:none"
               id="path4617" />
          </g>
          <g
             id="g4619"
             transform="translate(320.6392,216.3244)">
            <path
               d="m 0,0 -15.458,-16.691 c 3.859,-3.219 7.85,-6.285 11.966,-9.185 l 14.512,15.67 z"
               style="fill:#111f4d;fill-opacity:1;fill-rule:nonzero;stroke:none"
               id="path4621" />
          </g>
        </g>
      </g>
    </g>
  </g>
</svg>
